<?xml version="1.0" encoding="UTF-8" standalone="no"?>
<!-- Created with Inkscape (http://www.inkscape.org/) -->

<svg

   width="45px"
   height="45px"
   viewBox="0 0 101.84393 104.06599"
   version="1.1"
   id="svg2503"
   xml:space="preserve"
   inkscape:version="1.2.2 (732a01da63, 2022-12-09)"
   sodipodi:docname="chelsea.svg"
   xmlns:inkscape="http://www.inkscape.org/namespaces/inkscape"
   xmlns:sodipodi="http://sodipodi.sourceforge.net/DTD/sodipodi-0.dtd"
   xmlns:xlink="http://www.w3.org/1999/xlink"
   xmlns="http://www.w3.org/2000/svg"
   xmlns:svg="http://www.w3.org/2000/svg"><sodipodi:namedview
     id="namedview2505"
     pagecolor="#ffffff"
     bordercolor="#000000"
     borderopacity="0.25"
     inkscape:showpageshadow="2"
     inkscape:pageopacity="0.0"
     inkscape:pagecheckerboard="0"
     inkscape:deskcolor="#d1d1d1"
     inkscape:document-units="mm"
     showgrid="false"
     inkscape:zoom="0.76078844"
     inkscape:cx="396.2994"
     inkscape:cy="554.68771"
     inkscape:window-width="1920"
     inkscape:window-height="1177"
     inkscape:window-x="1922"
     inkscape:window-y="-8"
     inkscape:window-maximized="1"
     inkscape:current-layer="layer1" /><defs
     id="defs2500"><linearGradient
       inkscape:collect="always"
       id="linearGradient12694"><stop
         style="stop-color:#be97f7;stop-opacity:1;"
         offset="0.28904429"
         id="stop12690" /><stop
         style="stop-color:#855cd3;stop-opacity:1;"
         offset="0.75990677"
         id="stop12692" /></linearGradient><linearGradient
       inkscape:collect="always"
       id="linearGradient9021"><stop
         style="stop-color:#cbacf7;stop-opacity:1;"
         offset="0"
         id="stop9017" /><stop
         style="stop-color:#855cd3;stop-opacity:1;"
         offset="0.5804196"
         id="stop9019" /></linearGradient><linearGradient
       inkscape:collect="always"
       id="linearGradient6207"><stop
         style="stop-color:#491990;stop-opacity:1;"
         offset="0"
         id="stop6203" /><stop
         style="stop-color:#c09dff;stop-opacity:1;"
         offset="1"
         id="stop6205" /></linearGradient><linearGradient
       inkscape:collect="always"
       xlink:href="#linearGradient6207"
       id="linearGradient6209"
       x1="80.683846"
       y1="102.00181"
       x2="147.71501"
       y2="120.9797"
       gradientUnits="userSpaceOnUse" /><linearGradient
       inkscape:collect="always"
       xlink:href="#linearGradient9021"
       id="linearGradient9023"
       x1="132.90874"
       y1="64.789864"
       x2="56.032761"
       y2="169.29631"
       gradientUnits="userSpaceOnUse" /><linearGradient
       inkscape:collect="always"
       xlink:href="#linearGradient12694"
       id="linearGradient12688"
       x1="89.8722"
       y1="185.44553"
       x2="137.62105"
       y2="145.84537"
       gradientUnits="userSpaceOnUse" /></defs><g
     inkscape:groupmode="layer"
     id="layer2"
     inkscape:label="Layer 2"
     transform="translate(-48.22548,-81.37953)"><path
       id="path4405"
       style="opacity:1;fill:url(#linearGradient6209);fill-opacity:1;stroke-width:1.83298"
       d="m 143.846,105.02821 a 41.133698,41.133698 0 0 0 -1.02009,-1.08262 41.133698,41.133698 0 0 0 -2.63085,-2.35076 41.133698,41.133698 0 0 0 -2.82257,-2.117181 41.133698,41.133698 0 0 0 -2.99361,-1.86707 41.133698,41.133698 0 0 0 -3.14296,-1.604036 41.133698,41.133698 0 0 0 -3.26802,-1.329118 41.133698,41.133698 0 0 0 -3.37034,-1.043347 41.133698,41.133698 0 0 0 -3.44785,-0.751375 41.133698,41.133698 0 0 0 -3.49901,-0.452686 41.133698,41.133698 0 0 0 -3.52485,-0.151412 41.133698,41.133698 0 0 0 -3.5233,0.153479 41.133698,41.133698 0 0 0 -3.49746,0.454753 41.133698,41.133698 0 0 0 -3.44578,0.752409 41.133698,41.133698 0 0 0 -3.36827,1.045414 41.133698,41.133698 0 0 0 -3.266471,1.329634 41.133698,41.133698 0 0 0 -3.140894,1.604554 41.133698,41.133698 0 0 0 -2.991549,1.867586 41.133698,41.133698 0 0 0 -2.820499,2.117186 41.133698,41.133698 0 0 0 -2.62878,2.35128 41.133698,41.133698 0 0 0 -2.417941,2.56728 41.133698,41.133698 0 0 0 -2.189013,2.76572 41.133698,41.133698 0 0 0 -1.944068,2.94246 41.133698,41.133698 0 0 0 -1.685168,3.09852 41.133698,41.133698 0 0 0 -1.413351,3.23081 41.133698,41.133698 0 0 0 -1.131197,3.34088 41.133698,41.133698 0 0 0 -0.840775,3.42511 41.133698,41.133698 0 0 0 -0.54467,3.48455 41.133698,41.133698 0 0 0 -0.09767,1.40921 c 1.581413,-13.55413 13.101369,-24.07364 27.080006,-24.07346 9.19411,0.0143 17.68683,4.65276 22.68957,12.20804 0.92739,1.40057 2.89791,2.62568 4.57853,2.62568 h 20.18791 c 1.68062,0 2.72636,-1.32645 2.23088,-2.93213 -1.44414,-4.67985 -3.5135,-9.04692 -6.09989,-13.01936 z"
       inkscape:export-filename="..\path4405.svg"
       inkscape:export-xdpi="96"
       inkscape:export-ydpi="96" /><path
       id="path4685"
       style="opacity:1;fill:url(#linearGradient12688);fill-opacity:1;stroke-width:1.83298"
       d="m 123.51391,147.77083 a 41.133698,41.133698 0 0 1 -0.48524,1.4335 41.133698,41.133698 0 0 1 -1.41335,3.23133 41.133698,41.133698 0 0 1 -1.68517,3.09852 41.133698,41.133698 0 0 1 -1.94407,2.94245 41.133698,41.133698 0 0 1 -2.18901,2.76521 41.133698,41.133698 0 0 1 -2.41743,2.5678 41.133698,41.133698 0 0 1 -2.62929,2.35076 41.133698,41.133698 0 0 1 -2.8205,2.11718 41.133698,41.133698 0 0 1 -2.99155,1.86811 41.133698,41.133698 0 0 1 -3.1409,1.60455 41.133698,41.133698 0 0 1 -3.266463,1.32963 41.133698,41.133698 0 0 1 -3.36827,1.0449 41.133698,41.133698 0 0 1 -3.445785,0.75293 41.133698,41.133698 0 0 1 -3.497461,0.45475 41.133698,41.133698 0 0 1 -3.523299,0.15348 41.133698,41.133698 0 0 1 -3.524849,-0.15141 41.133698,41.133698 0 0 1 -3.499011,-0.45269 41.133698,41.133698 0 0 1 -3.447335,-0.75137 41.133698,41.133698 0 0 1 -3.370337,-1.04387 41.133698,41.133698 0 0 1 -3.268534,-1.3286 41.133698,41.133698 0 0 1 -3.142961,-1.60403 41.133698,41.133698 0 0 1 -2.541447,-1.58492 c 9.512052,10.37235 23.174514,16.87661 38.357352,16.87649 22.91845,-0.0117 42.99821,-14.99276 49.68689,-36.66805 0.49548,-1.60567 -0.55026,-2.93212 -2.23088,-2.93212 H 127.5271 c -1.39185,0 -2.98088,0.84116 -4.01319,1.92547 z" /><path
       id="path4690"
       style="opacity:1;fill:url(#linearGradient9023);fill-opacity:1;stroke-width:1.83298"
       d="M 100.259,81.379529 C 71.521861,81.379295 48.225533,104.6754 48.22548,133.41253 c 1e-6,0.67796 0.01719,1.35198 0.04289,2.02365 0.488091,12.75685 5.566236,24.33621 13.633276,33.13286 a 41.133698,41.133698 0 0 0 2.541447,1.58492 41.133698,41.133698 0 0 0 3.142961,1.60403 41.133698,41.133698 0 0 0 3.268534,1.3286 41.133698,41.133698 0 0 0 3.370337,1.04387 41.133698,41.133698 0 0 0 3.447335,0.75137 41.133698,41.133698 0 0 0 3.499011,0.45269 41.133698,41.133698 0 0 0 3.524849,0.15141 41.133698,41.133698 0 0 0 3.523299,-0.15348 41.133698,41.133698 0 0 0 3.497461,-0.45475 41.133698,41.133698 0 0 0 3.445785,-0.75293 41.133698,41.133698 0 0 0 3.36827,-1.0449 41.133698,41.133698 0 0 0 3.266465,-1.32963 41.133698,41.133698 0 0 0 3.1409,-1.60455 41.133698,41.133698 0 0 0 2.99155,-1.86811 41.133698,41.133698 0 0 0 2.8205,-2.11718 41.133698,41.133698 0 0 0 2.62929,-2.35076 41.133698,41.133698 0 0 0 2.41743,-2.5678 41.133698,41.133698 0 0 0 2.18901,-2.76521 41.133698,41.133698 0 0 0 1.94407,-2.94245 41.133698,41.133698 0 0 0 1.68517,-3.09852 41.133698,41.133698 0 0 0 1.41335,-3.23133 41.133698,41.133698 0 0 0 0.48524,-1.4335 c -0.21418,0.22495 -0.406,0.45956 -0.56534,0.70021 -5.00274,7.55529 -13.49546,12.19378 -22.68957,12.20804 -14.37833,1.8e-4 -26.156553,-11.12897 -27.192144,-25.2429 -0.04903,-0.66819 -0.07493,-1.34295 -0.07493,-2.02365 7e-6,-1.08042 0.06484,-2.14548 0.187069,-3.19309 a 41.133698,41.133698 0 0 1 0.09767,-1.40921 41.133698,41.133698 0 0 1 0.54467,-3.48455 41.133698,41.133698 0 0 1 0.840775,-3.42511 41.133698,41.133698 0 0 1 1.131197,-3.34088 41.133698,41.133698 0 0 1 1.413351,-3.23081 41.133698,41.133698 0 0 1 1.685168,-3.09852 41.133698,41.133698 0 0 1 1.944068,-2.94246 41.133698,41.133698 0 0 1 2.189013,-2.76572 41.133698,41.133698 0 0 1 2.417941,-2.56728 41.133698,41.133698 0 0 1 2.62878,-2.35128 41.133698,41.133698 0 0 1 2.820499,-2.117186 41.133698,41.133698 0 0 1 2.991549,-1.867586 41.133698,41.133698 0 0 1 3.140894,-1.604554 41.133698,41.133698 0 0 1 3.26647,-1.329634 41.133698,41.133698 0 0 1 3.36827,-1.045414 41.133698,41.133698 0 0 1 3.44578,-0.752409 41.133698,41.133698 0 0 1 3.49746,-0.454753 41.133698,41.133698 0 0 1 3.5233,-0.153479 41.133698,41.133698 0 0 1 3.52485,0.151412 41.133698,41.133698 0 0 1 3.49901,0.452686 41.133698,41.133698 0 0 1 3.44785,0.751375 41.133698,41.133698 0 0 1 3.37034,1.043347 41.133698,41.133698 0 0 1 3.26802,1.329118 41.133698,41.133698 0 0 1 3.14296,1.604036 41.133698,41.133698 0 0 1 2.99361,1.86707 41.133698,41.133698 0 0 1 2.82257,2.117181 41.133698,41.133698 0 0 1 2.63085,2.35076 41.133698,41.133698 0 0 1 1.02009,1.08262 C 134.45321,90.601847 118.22918,81.388733 100.259,81.379529 Z" /></g></svg>
